<svg xmlns="http://www.w3.org/2000/svg" fill="none" aria-hidden="true" viewBox="0 0 48 48"><path stroke="#e07a4f" stroke-linejoin="round" stroke-width="2" d="M18 8h8a3 3 0 0 1 3 3v3.2a3 3 0 0 0 1.8 2.75l2.2 1.3a3 3 0 0 1 0 5.1l-2.2 1.3A3 3 0 0 0 29 25v3.2a3 3 0 0 1-3 3h-8a3 3 0 0 1-3-3V25a3 3 0 0 0-1.8-2.75l-2.2-1.3a3 3 0 0 1 0-5.1l2.2-1.3a3 3 0 0 0 5.8-.35V11a3 3 0 0 1 3-3Z"/><circle cx="24" cy="24" r="4.5" fill="#3d3530" stroke="#f2b090" stroke-width="1.75"/><path stroke="#f2b090" stroke-linecap="round" stroke-linejoin="round" stroke-width="1.75" d="M34 12h6v6M14 36h6v6"/></svg>